<svg width="54" height="54" viewBox="0 0 54 54" fill="none" xmlns="http://www.w3.org/2000/svg">
<path fill-rule="evenodd" clip-rule="evenodd" d="M27 0C12.0985 0 0 12.0985 0 27C0 41.9015 12.0985 54 27 54C41.9015 54 54 41.9015 54 27C54 12.0985 41.9015 0 27 0ZM29.4545 24.5455V14.7273C29.4545 13.3724 28.3549 12.2727 27 12.2727C25.6451 12.2727 24.5455 13.3724 24.5455 14.7273V24.5455H14.7273C13.3724 24.5455 12.2727 25.6451 12.2727 27C12.2727 28.3549 13.3724 29.4545 14.7273 29.4545H24.5455V39.2727C24.5455 40.6276 25.6451 41.7273 27 41.7273C28.3549 41.7273 29.4545 40.6276 29.4545 39.2727V29.4545H39.2727C40.6276 29.4545 41.7273 28.3549 41.7273 27C41.7273 25.6451 40.6276 24.5455 39.2727 24.5455H29.4545Z" fill="#F87000"/>
</svg>
