<svg width="120" height="120" viewBox="0 0 120 120" fill="none" xmlns="http://www.w3.org/2000/svg">
<path d="M109.159 81.8116C106.406 83.3625 103.194 83.791 100.185 82.8957C97.1115 82.0374 94.6228 80.0723 93.0719 77.3197C91.521 74.5671 91.1294 71.4203 91.9878 68.3464C92.8461 65.2725 94.8112 62.7837 97.5638 61.2328C100.316 59.6819 103.463 59.2903 106.537 60.1487C112.787 61.894 116.48 68.4477 114.735 74.698C113.876 77.772 111.911 80.2607 109.159 81.8116Z" fill="#F87000"/>
<path d="M22.1798 58.4635C19.4272 60.0144 16.2149 60.4429 13.2065 59.5476C10.1325 58.6893 7.6438 56.7241 6.09288 53.9715C4.54197 51.219 4.15043 48.0722 5.00876 44.9982C5.8671 41.9243 7.83224 39.4356 10.5848 37.8847C13.3374 36.3337 16.4842 35.9422 19.5581 36.8005C22.632 37.6589 25.1208 39.624 26.6717 42.3766C28.2226 45.1292 28.6511 48.3415 27.7558 51.3499C26.9261 54.3214 24.9323 56.9126 22.1798 58.4635Z" fill="#F87000"/>
<path d="M77.5711 26.8218C74.8185 28.3727 71.6062 28.8012 68.5978 27.9059C62.3475 26.1607 58.6548 19.6069 60.4001 13.3566C61.2584 10.2827 63.2236 7.79392 65.9761 6.24301C68.7287 4.69209 71.8755 4.30056 74.9494 5.15889C81.1998 6.90416 84.8924 13.4579 83.1472 19.7082C82.2888 22.7822 80.3237 25.2709 77.5711 26.8218Z" fill="#F87000"/>
<path d="M53.3866 113.236C50.634 114.787 47.4217 115.216 44.4133 114.32C41.3394 113.462 38.8507 111.497 37.2997 108.744C35.7488 105.992 35.3573 102.845 36.2156 99.7709C36.3873 99.1562 36.6245 98.5045 36.9928 97.7789C37.1155 97.537 37.2383 97.2952 37.3324 97.1558C37.6149 96.7376 37.8973 96.3194 38.1142 95.9382C38.2739 95.7619 38.3967 95.52 38.5564 95.3437C38.8757 94.9911 39.1951 94.6384 39.58 94.2489C39.6456 94.212 39.7397 94.0726 39.8053 94.0356C39.8708 93.9987 39.9363 93.9618 39.8994 93.8962L42.1194 92.4727C42.3815 92.325 42.7461 92.2059 43.0738 92.0213L43.2049 91.9474C43.2704 91.9105 43.4015 91.8367 43.467 91.7997L43.5326 91.7628L43.6637 91.689L43.7292 91.652C43.9258 91.5413 44.0569 91.4674 44.2535 91.3566C48.1858 89.141 51.1579 85.2215 52.3513 80.75C53.5077 76.2129 52.865 71.3944 50.5839 67.4991L50.51 67.368L50.4362 67.2369C50.3623 67.1059 50.3254 67.0403 50.186 66.9462C50.1121 66.8151 50.0383 66.684 49.8989 66.5899L49.7512 66.3277C49.6404 66.1311 49.4641 65.9714 49.3533 65.7748L48.2575 63.3702C48.2206 63.3047 48.1836 63.2391 48.2122 63.1367L48.2039 62.9687C48.0765 62.4361 47.9205 62.0059 47.8586 61.4364C47.7765 61.1373 47.8337 60.9324 47.7884 60.6988C47.7635 60.1948 47.7385 59.6908 47.7505 59.2523C47.7422 59.0843 47.7625 58.8139 47.8197 58.6089C47.8806 57.7975 48.0154 57.1172 48.187 56.5024C49.0454 53.4285 51.0105 50.9398 53.7631 49.3889C56.5157 47.8379 59.728 47.4095 62.7364 48.3047C68.9867 50.05 72.6794 56.6038 70.9341 62.8541C70.7624 63.4689 70.5252 64.1206 70.1569 64.8462C70.0342 65.088 69.94 65.2274 69.8173 65.4693C69.5348 65.8874 69.3179 66.2687 69.0355 66.6869C68.8758 66.8632 68.753 67.105 68.5933 67.2813C68.274 67.634 67.9546 67.9866 67.5697 68.3762L67.3444 68.5894C67.2789 68.6263 67.2503 68.7288 67.1848 68.7657L65.0017 70.2548C64.7396 70.4025 64.4405 70.4846 64.1128 70.6693L63.9162 70.7801C63.8507 70.817 63.7196 70.8908 63.654 70.9278L63.5885 70.9647L63.4574 71.0385L63.3919 71.0755C63.1953 71.1863 63.0642 71.2601 62.8676 71.3709C58.9353 73.5865 55.9632 77.5061 54.7698 81.9776C53.6134 86.5146 54.2561 91.3331 56.5372 95.2284L56.6111 95.3595L56.6849 95.4906C56.7588 95.6216 56.7957 95.6872 56.9351 95.7813C57.009 95.9124 57.0828 96.0435 57.2222 96.1376C57.2591 96.2032 57.333 96.3342 57.4724 96.4284C57.5462 96.5595 57.7225 96.7192 57.7964 96.8502L57.8333 96.9158L58.8922 99.2548C58.9291 99.3204 59.0113 99.6194 58.9827 99.7219C59.1101 100.255 59.2375 100.787 59.2911 101.189C59.3363 101.422 59.3816 101.656 59.3613 101.926C59.3862 102.43 59.4112 102.934 59.4361 103.438C59.4444 103.606 59.4241 103.877 59.4038 104.147C59.306 104.893 59.2082 105.639 59.0365 106.254C58.1699 109.16 56.1392 111.685 53.3866 113.236Z" fill="#F87000"/>
<path d="M81.2398 97.5422C78.4873 99.0931 75.2749 99.5216 72.2665 98.6264C69.1926 97.768 66.7039 95.8029 65.153 93.0503C63.602 90.2977 63.2105 87.1509 64.0688 84.077C64.2405 83.4622 64.4777 82.8105 64.846 82.0849C64.9032 81.88 65.0629 81.7037 65.1201 81.4988C65.4026 81.0806 65.6195 80.6993 65.9019 80.2812C66.0616 80.1049 66.1844 79.863 66.344 79.6867C66.6634 79.334 66.9828 78.9814 67.3677 78.5918L67.6871 78.2392L69.9356 76.7132C70.1978 76.5655 70.5624 76.4464 70.8246 76.2987L71.0212 76.188C71.1523 76.1141 71.2178 76.0772 71.3489 76.0033C71.4144 75.9664 71.4144 75.9664 71.4799 75.9295L71.5455 75.8925L71.611 75.8556C71.8076 75.7448 71.9387 75.671 72.1353 75.5602C76.0676 73.3446 79.0397 69.425 80.2331 64.9535C81.3895 60.4165 80.7468 55.598 78.4657 51.7027L78.2072 51.2439L78.1047 51.2153L78.0678 51.1498C77.994 51.0187 77.957 50.9531 77.8832 50.8221L77.633 50.5313C77.5222 50.3347 77.3459 50.175 77.2721 50.0439L76.1476 47.7418C76.1107 47.6763 76.0285 47.3772 76.0571 47.2747C75.8928 46.6766 75.8023 46.2095 75.7488 45.8079C75.7035 45.5744 75.6583 45.3409 75.6786 45.0704C75.6906 44.6319 75.6001 44.1649 75.6407 43.6239L75.6693 43.5215C75.661 43.3535 75.6526 43.1855 75.7099 42.9805C75.7708 42.1691 75.9055 41.4888 76.0772 40.874C76.9355 37.8001 78.9006 35.3114 81.6532 33.7604C84.4058 32.2095 87.5526 31.818 90.6265 32.6763C96.8768 34.4216 100.569 40.9754 98.8242 47.2257C98.6526 47.8405 98.4153 48.4922 98.0471 49.2177C97.9529 49.3571 97.9243 49.4596 97.8302 49.599L97.7074 49.8408C97.4905 50.2221 97.208 50.6403 96.9256 51.0584C96.7659 51.2347 96.6432 51.4766 96.4835 51.6529C96.1641 52.0056 95.8447 52.3582 95.4598 52.7477C95.3287 52.8216 95.3001 52.9241 95.2346 52.961C95.169 52.9979 95.1035 53.0348 95.1404 53.1004L92.9205 54.5239C92.5928 54.7085 92.1626 54.8645 91.798 54.9836C91.6669 55.0575 91.6014 55.0944 91.4703 55.1683C91.4048 55.2052 91.4048 55.2052 91.3393 55.2421L91.1426 55.3529C90.946 55.4637 90.815 55.5375 90.6183 55.6483C86.6861 57.8639 83.7139 61.7835 82.5206 66.255C81.3641 70.792 82.0068 75.6105 84.3535 79.4689L84.4274 79.6L84.5012 79.7311C84.5751 79.8621 84.6489 79.9932 84.7514 80.0218C84.8252 80.1529 84.8991 80.284 84.936 80.3495C84.9729 80.4151 85.0468 80.5461 85.1862 80.6403C85.297 80.8369 85.4364 80.931 85.5471 81.1277L86.643 83.5323C86.6799 83.5978 86.6965 83.9338 86.6965 83.9338C86.8239 84.4664 86.9513 84.999 87.0418 85.4661C87.0871 85.6997 87.1323 85.9332 87.0751 86.1381L87.112 86.2037C87.137 86.7077 87.125 87.1461 87.1499 87.6501C87.1296 87.9206 87.1379 88.0886 87.1176 88.3591C87.0568 89.1705 86.922 89.8508 86.7504 90.4656C85.9576 93.5026 83.9924 95.9913 81.2398 97.5422Z" fill="#F87000"/>
<path d="M37.7296 85.4485C34.977 86.9994 31.7933 87.3254 28.7563 86.5326C25.6824 85.6743 23.1936 83.7091 21.6427 80.9565C20.0918 78.204 19.7002 75.0572 20.5586 71.9832C20.7302 71.3685 20.9674 70.7167 21.3357 69.9912C21.393 69.7863 21.5526 69.6099 21.6754 69.3681C21.8923 68.9868 22.1748 68.5687 22.4572 68.1505C22.6169 67.9742 22.7396 67.7323 22.8993 67.556C23.2187 67.2034 23.5381 66.8507 23.9599 66.5267L24.1851 66.3135C24.2507 66.2765 24.2507 66.2765 24.2793 66.1741L26.5279 64.6481C26.8555 64.4635 27.2202 64.3444 27.5848 64.2253L27.6503 64.1884C27.7814 64.1145 27.8469 64.0776 27.978 64.0037C28.0435 63.9668 28.0435 63.9668 28.1091 63.9299L28.2402 63.856L28.3057 63.8191C28.5023 63.7083 28.6334 63.6345 28.83 63.5237C32.7623 61.3081 35.7344 57.3885 36.9278 52.917C38.0842 48.38 37.4415 43.5615 35.0948 39.7031L35.021 39.572L34.9471 39.4409C34.8733 39.3098 34.7994 39.1788 34.66 39.0846C34.5862 38.9535 34.5492 38.888 34.4754 38.7569L34.2621 38.5317C34.1514 38.3351 33.975 38.1754 33.8643 37.9788L32.7768 35.7422L32.7398 35.6767L32.7029 35.6111C32.666 35.5456 32.5838 35.2465 32.5838 35.2465C32.4195 34.6484 32.2921 34.1157 32.2385 33.7142C32.1933 33.4807 32.2136 33.2102 32.1683 32.9767C32.1434 32.4726 32.1554 32.0342 32.1304 31.5302L32.159 31.4277C32.1876 31.3252 32.2079 31.0548 32.1996 30.8868C32.2605 30.0754 32.3952 29.3951 32.5669 28.7803C33.4252 25.7063 35.3904 23.2176 38.143 21.6667C40.8955 20.1158 44.1079 19.6873 47.1163 20.5826C53.3666 22.3278 57.0592 28.8816 55.314 35.1319C55.1423 35.7467 54.9051 36.3984 54.5368 37.124C54.4796 37.3289 54.3854 37.4683 54.2258 37.6446L54.1971 37.7471C53.9147 38.1653 53.6978 38.5465 53.4153 38.9647C53.2557 39.141 53.1329 39.3829 52.9732 39.5592C52.6538 39.9118 52.3345 40.2644 51.9496 40.654C51.884 40.6909 51.7899 40.8303 51.7243 40.8672C51.6588 40.9042 51.5933 40.9411 51.6302 41.0066L49.4102 42.4301C49.1481 42.5778 48.7835 42.6969 48.4558 42.8816L48.3247 42.9554C48.1936 43.0293 48.1281 43.0662 47.997 43.1401C47.9315 43.177 47.9315 43.177 47.8659 43.2139L47.8004 43.2508L47.6693 43.3247C47.4727 43.4355 47.3416 43.5093 47.145 43.6201C43.2128 45.8357 40.2406 49.7553 39.0472 54.2268C37.8908 58.7638 38.5335 63.5823 40.8146 67.4776L40.8885 67.6087L40.9623 67.7398C41.0362 67.8709 41.1101 68.0019 41.2125 68.0306C41.2864 68.1616 41.3602 68.2927 41.4341 68.4238C41.471 68.4893 41.5449 68.6204 41.6842 68.7145C41.795 68.9112 41.9344 69.0053 42.0452 69.2019L43.1041 71.541C43.141 71.6065 43.1779 71.672 43.1493 71.7745L43.1946 72.008C43.3589 72.6062 43.4494 73.0733 43.5399 73.5404C43.5851 73.7739 43.5648 74.0444 43.6101 74.2779C43.635 74.7819 43.623 75.2204 43.648 75.7244C43.6277 75.9949 43.636 76.1629 43.6157 76.4333C43.5548 77.2447 43.4201 77.925 43.2484 78.5398C42.4759 81.3064 40.4822 83.8976 37.7296 85.4485Z" fill="#F87000"/>
</svg>
