<svg width="28" height="21" viewBox="0 0 28 21" fill="none" xmlns="http://www.w3.org/2000/svg">
<path d="M25 0.5H3C2.20435 0.5 1.44129 0.816071 0.87868 1.37868C0.316071 1.94129 0 2.70435 0 3.5V17.5C0 18.2956 0.316071 19.0587 0.87868 19.6213C1.44129 20.1839 2.20435 20.5 3 20.5H25C25.7956 20.5 26.5587 20.1839 27.1213 19.6213C27.6839 19.0587 28 18.2956 28 17.5V3.5C28 2.70435 27.6839 1.94129 27.1213 1.37868C26.5587 0.816071 25.7956 0.5 25 0.5ZM2 6.41L8.87 11.16L2 17.17V6.41ZM10.56 12.34L11.15 12.75C11.9901 13.3227 12.9833 13.629 14 13.629C15.0167 13.629 16.0099 13.3227 16.85 12.75L17.44 12.34L24.44 18.5H3.44L10.56 12.34ZM26 17.17L19.13 11.17L26 6.41V17.17ZM3 2.5H25C25.2652 2.5 25.5196 2.60536 25.7071 2.79289C25.8946 2.98043 26 3.23478 26 3.5V3.98L15.71 11.1C15.2078 11.4484 14.6112 11.6351 14 11.6351C13.3888 11.6351 12.7922 11.4484 12.29 11.1L2 3.98V3.5C2 3.23478 2.10536 2.98043 2.29289 2.79289C2.48043 2.60536 2.73478 2.5 3 2.5Z" fill="#F87000"/>
</svg>
