<svg width="22" height="25" viewBox="0 0 22 25" fill="none" xmlns="http://www.w3.org/2000/svg">
<path d="M14.4426 13.5733C16.6167 12.3362 18.0887 9.96685 18.0887 7.24382C18.0887 3.24213 14.9159 0 11.0004 0C7.0855 0 3.91162 3.24213 3.91162 7.2441C3.91162 9.96713 5.3838 12.3362 7.55772 13.5736C3.16948 15.0503 0.000824598 19.2702 0 24.25C0 24.6643 0.328465 25 0.733892 25C1.13932 25 1.46751 24.6643 1.46751 24.25C1.47658 18.8697 5.7348 14.5171 11.0004 14.5076C16.2655 14.5171 20.5234 18.8697 20.5325 24.25C20.5325 24.6643 20.861 25 21.2664 25C21.6718 25 22 24.6643 22 24.25C21.9992 19.2708 18.8305 15.0508 14.4426 13.5733ZM5.37858 7.2441C5.38353 4.07079 7.89608 1.50421 11.0004 1.49803C14.1056 1.50421 16.6167 4.07079 16.6222 7.2441C16.6165 10.4163 14.1056 12.9837 11.0004 12.9893C7.89635 12.9837 5.38353 10.4163 5.37858 7.2441Z" fill="#F87000"/>
</svg>
